<svg width="134" height="41" viewBox="0 0 134 41" fill="none" xmlns="http://www.w3.org/2000/svg">
<g clip-path="url(#clip0_512_9470)">
<path d="M124.592 0.5H8.99473C8.6934 0.5 8.39206 0.5 8.08806 0.5C7.42506 0.509641 6.76369 0.568469 6.1094 0.676C5.45933 0.786098 4.82987 0.99472 4.24273 1.29467C3.65214 1.5966 3.11231 1.98888 2.64273 2.45733C2.17323 2.92602 1.78083 3.46603 1.48006 4.05733C1.17647 4.65282 0.966027 5.29136 0.856063 5.95067C0.745543 6.60368 0.686694 7.2644 0.680063 7.92667C0.664062 8.23333 0.664062 8.532 0.664062 8.836V32.1667C0.664062 32.4733 0.664062 32.772 0.680063 33.0787C0.686925 33.7409 0.745773 34.4016 0.856063 35.0547C0.965075 35.7046 1.17281 36.3341 1.47206 36.9213C2.07698 38.1157 3.04393 39.0882 4.23473 39.7C4.82212 40.0005 5.45139 40.2108 6.1014 40.324C6.75575 40.4307 7.41713 40.4886 8.08006 40.4973C8.38406 40.4973 8.6854 40.4973 8.98673 40.4973H125.653C125.955 40.4973 126.261 40.4973 126.563 40.4973C127.224 40.4892 127.884 40.4312 128.536 40.324C129.192 40.2104 129.827 40.0001 130.421 39.7C131.014 39.4012 131.554 39.0086 132.021 38.5373C132.493 38.0694 132.888 37.5293 133.189 36.9373C133.486 36.3494 133.692 35.7201 133.8 35.0707C133.91 34.4175 133.972 33.757 133.984 33.0947C133.984 32.788 133.984 32.4893 133.984 32.1827C133.984 31.8253 133.984 31.468 133.984 31.116V9.91333C133.984 9.55067 133.984 9.19333 133.984 8.84667C133.984 8.54267 133.984 8.23867 133.984 7.93733C133.972 7.275 133.911 6.61449 133.8 5.96133C133.691 5.31217 133.485 4.683 133.189 4.09467C132.585 2.89685 131.62 1.91924 130.429 1.3C129.835 1.00313 129.2 0.797275 128.544 0.689333C127.892 0.581217 127.232 0.522384 126.571 0.513333C126.269 0.513333 125.963 0.513333 125.661 0.513333L124.592 0.5Z" fill="#B6B6B6"/>
<path d="M9.00008 39.6361C8.69874 39.6361 8.40541 39.6361 8.10674 39.6361C7.48854 39.6281 6.87177 39.5746 6.26141 39.4761C5.69328 39.3796 5.14248 39.1999 4.62674 38.9428C3.6021 38.4176 2.76753 37.5849 2.24008 36.5615C1.9805 36.0458 1.80068 35.4937 1.70674 34.9241C1.60478 34.3124 1.55039 33.6936 1.54408 33.0735C1.54408 32.8654 1.52808 32.1721 1.52808 32.1721V8.83611C1.52808 8.83611 1.52808 8.15344 1.54408 7.95344C1.54869 7.33242 1.60219 6.71273 1.70408 6.10011C1.7968 5.5285 1.97667 4.9745 2.23741 4.45744C2.49661 3.94865 2.83607 3.48494 3.24274 3.08411C3.6489 2.67752 4.11581 2.33656 4.62674 2.07344C5.14133 1.81583 5.69133 1.63609 6.25874 1.54011C6.87067 1.43948 7.48931 1.3851 8.10941 1.37744H9.00008H125.656H126.557C127.172 1.3827 127.786 1.4362 128.392 1.53744C128.965 1.63145 129.521 1.81125 130.04 2.07077C131.067 2.60053 131.901 3.44024 132.424 4.47078C132.683 4.9839 132.863 5.53322 132.957 6.10011C133.06 6.71732 133.117 7.34122 133.128 7.96678C133.128 8.24678 133.128 8.54811 133.128 8.84678C133.128 9.21744 133.128 9.56944 133.128 9.91344V31.0868C133.128 31.4468 133.128 31.7961 133.128 32.1534C133.128 32.5108 133.128 32.7695 133.128 33.0735C133.118 33.6866 133.062 34.2981 132.96 34.9028C132.869 35.4765 132.689 36.0324 132.427 36.5508C131.897 37.5704 131.064 38.4006 130.043 38.9268C129.524 39.1866 128.97 39.3665 128.397 39.4601C127.787 39.5592 127.17 39.6127 126.552 39.6201C126.264 39.6201 125.96 39.6201 125.667 39.6201H9.00008V39.6361Z" fill="black"/>
<path d="M50.1547 27.5026H45.4641L44.3254 30.6333H42.2641L46.8507 18.9373H48.7974L53.4881 30.6333H51.3307L50.1547 27.5026ZM46.0614 25.9026H49.5547L48.3041 22.5533C48.1334 22.0919 47.9627 21.5799 47.7974 21.0199C47.6454 21.5159 47.4801 22.0199 47.3041 22.5373L46.0614 25.9026Z" fill="white"/>
<path d="M54.3174 24.0547C54.3174 23.4093 54.2961 22.6982 54.2534 21.9213H56.1201C56.1902 22.287 56.2383 22.6566 56.2641 23.028C56.5907 22.6366 56.9981 22.3205 57.4584 22.1014C57.9187 21.8823 58.421 21.7654 58.9307 21.7587C59.5284 21.7492 60.1154 21.9182 60.6165 22.2441C61.1176 22.57 61.5102 23.0379 61.7441 23.588C62.0721 24.3443 62.2279 25.1641 62.2001 25.988C62.2203 26.8864 62.0381 27.7777 61.6667 28.596C61.3561 29.2751 60.8489 29.8455 60.2107 30.2333C59.5541 30.6128 58.8063 30.8055 58.0481 30.7907C57.4514 30.7903 56.8591 30.6893 56.2961 30.492V34.1L54.3014 34.2707L54.3174 24.0547ZM59.5601 28.5C59.9654 27.9667 60.1707 27.1667 60.1707 26.1C60.1707 25.1276 60.0018 24.4165 59.6641 23.9667C59.5114 23.7576 59.3104 23.5888 59.0782 23.4745C58.8459 23.3602 58.5895 23.304 58.3307 23.3107C57.9581 23.3057 57.5905 23.3976 57.2641 23.5773C56.9173 23.7738 56.6018 24.021 56.3281 24.3107V28.9773C56.549 29.0815 56.7819 29.1585 57.0214 29.2067C57.279 29.2624 57.5418 29.291 57.8054 29.292C58.1401 29.3121 58.4748 29.2504 58.7804 29.1125C59.0861 28.9745 59.3536 28.7643 59.5601 28.5Z" fill="white"/>
<path d="M63.4134 24.0547C63.4134 23.4093 63.3921 22.6982 63.3494 21.9213H65.2161C65.2884 22.2867 65.3374 22.6564 65.3627 23.028C66.1396 22.1818 67.0285 21.7587 68.0294 21.7587C68.6271 21.7492 69.214 21.9182 69.7152 22.2441C70.2163 22.57 70.6089 23.0379 70.8427 23.588C71.1708 24.3443 71.3265 25.1641 71.2987 25.988C71.3232 26.8853 71.1455 27.7767 70.7787 28.596C70.4674 29.2755 69.9592 29.8459 69.32 30.2333C68.6636 30.6131 67.9156 30.8059 67.1574 30.7907C66.5608 30.7903 65.9684 30.6893 65.4054 30.492V34.1L63.4107 34.2707L63.4134 24.0547ZM68.6641 28.5C69.0694 27.9542 69.2721 27.1542 69.2721 26.1C69.2721 25.1276 69.1041 24.4165 68.7681 23.9667C68.6154 23.7576 68.4144 23.5888 68.1822 23.4745C67.9499 23.3602 67.6935 23.304 67.4347 23.3107C67.0621 23.3062 66.6947 23.398 66.3681 23.5773C66.0213 23.7738 65.7058 24.021 65.4321 24.3107V28.9773C65.6534 29.0808 65.8861 29.1577 66.1254 29.2067C66.383 29.2624 66.6458 29.291 66.9094 29.292C67.2441 29.3116 67.5786 29.2498 67.8841 29.1118C68.1897 28.9739 68.4573 28.764 68.6641 28.5Z" fill="white"/>
<path d="M74.9654 30.0814C74.1132 29.614 73.4211 28.9014 72.9787 28.036C72.4952 27.0582 72.2573 25.9772 72.2854 24.8867C72.2508 23.72 72.5269 22.565 73.0854 21.54C73.5897 20.6506 74.3471 19.9312 75.2614 19.4734C76.2222 19.0039 77.2801 18.7673 78.3494 18.7827C78.9978 18.7799 79.6443 18.8551 80.2747 19.0067C80.8644 19.1455 81.4368 19.3494 81.9814 19.6147L81.4641 21.148C80.5208 20.6722 79.483 20.4134 78.4267 20.3907C77.6812 20.3783 76.9454 20.5622 76.2934 20.924C75.6747 21.2792 75.1775 21.8126 74.8667 22.4547C74.5093 23.2162 74.3357 24.0511 74.3601 24.892C74.3468 25.6497 74.4789 26.4028 74.7494 27.1107C74.9949 27.7372 75.4268 28.2734 75.9867 28.6467C76.6246 29.0458 77.3682 29.2429 78.1201 29.212C78.5097 29.2111 78.8985 29.1781 79.2827 29.1134C79.6545 29.0543 80.0197 28.9596 80.3734 28.8307V26.452H77.6694V24.9027H82.3121V29.8334C81.6385 30.1473 80.9331 30.3878 80.2081 30.5507C79.4891 30.7163 78.7538 30.8004 78.0161 30.8014C76.9543 30.8268 75.9038 30.5789 74.9654 30.0814Z" fill="white"/>
<path d="M89.3974 30.6333C89.322 30.2525 89.2756 29.8665 89.2587 29.4786C88.9256 29.8662 88.5186 30.1835 88.0614 30.412C87.5453 30.6734 86.9732 30.8052 86.3947 30.796C85.9214 30.8019 85.4528 30.7008 85.0241 30.5C84.6162 30.3087 84.2753 29.9993 84.0454 29.612C83.7906 29.173 83.6641 28.6713 83.6801 28.164C83.6651 27.7792 83.74 27.3962 83.8988 27.0453C84.0575 26.6945 84.2958 26.3854 84.5947 26.1426C85.2027 25.6378 86.217 25.3862 87.6374 25.388C88.1665 25.3877 88.6949 25.4252 89.2187 25.5V25.3293C89.2187 24.5613 89.0552 24.0191 88.7281 23.7026C88.337 23.3662 87.8295 23.1967 87.3147 23.2306C86.8537 23.2363 86.3951 23.299 85.9494 23.4173C85.5079 23.5238 85.0775 23.672 84.6641 23.86L84.3494 22.4093C84.8016 22.2163 85.2713 22.0672 85.7521 21.964C86.3567 21.8273 86.9748 21.7593 87.5947 21.7613C88.2515 21.7434 88.905 21.8604 89.5147 22.1053C90.051 22.3424 90.4877 22.7593 90.7494 23.284C91.0767 23.9865 91.2294 24.7577 91.1947 25.532V28.9986C91.1947 29.3542 91.2161 29.9 91.2587 30.636L89.3974 30.6333ZM88.2027 29.0333C88.5871 28.8547 88.9324 28.6018 89.2187 28.2893V26.6893C88.7761 26.637 88.3311 26.6076 87.8854 26.6013C87.0623 26.6013 86.4925 26.7346 86.1761 27.0013C86.0217 27.1317 85.899 27.2955 85.8172 27.4803C85.7355 27.6651 85.6968 27.866 85.7041 28.068C85.6896 28.2425 85.7129 28.418 85.7722 28.5827C85.8316 28.7474 85.9256 28.8975 86.0481 29.0226C86.308 29.2419 86.6419 29.3535 86.9814 29.3346C87.4061 29.3282 87.8238 29.2252 88.2027 29.0333Z" fill="white"/>
<path d="M92.7361 28.5427V18.2494L94.7201 18.0894V28.188C94.6918 28.4684 94.7585 28.7501 94.9094 28.988C94.9856 29.07 95.0795 29.1335 95.1839 29.1737C95.2884 29.2139 95.4006 29.2297 95.5121 29.22C95.6929 29.2122 95.8721 29.1817 96.0454 29.1294L96.2801 30.5587C96.0568 30.643 95.8253 30.7038 95.5894 30.74C95.3348 30.7842 95.0771 30.8074 94.8187 30.8094C93.4303 30.8005 92.7361 30.0449 92.7361 28.5427Z" fill="white"/>
<path d="M97.6987 28.5427V18.2494L99.6854 18.0894V28.188C99.6572 28.4684 99.7239 28.7501 99.8747 28.988C99.9509 29.07 100.045 29.1335 100.149 29.1737C100.254 29.2139 100.366 29.2297 100.477 29.22C100.658 29.2122 100.837 29.1817 101.011 29.1294L101.243 30.5587C101.02 30.643 100.79 30.7038 100.555 30.74C100.299 30.7843 100.041 30.8075 99.7814 30.8094C98.3947 30.8005 97.7005 30.0449 97.6987 28.5427Z" fill="white"/>
<path d="M109.403 26.532H103.704C103.795 28.3578 104.664 29.2707 106.312 29.2707C106.735 29.2685 107.156 29.2184 107.568 29.1214C107.989 29.0235 108.4 28.8897 108.797 28.7214L109.235 30.0867C108.208 30.5705 107.084 30.8132 105.949 30.796C105.136 30.8195 104.331 30.636 103.608 30.2627C102.982 29.9244 102.48 29.3958 102.173 28.7534C101.835 28.0091 101.671 27.1974 101.693 26.38C101.671 25.5236 101.845 24.6734 102.203 23.8947C102.507 23.2339 103 22.6774 103.619 22.2947C104.253 21.9211 104.979 21.7309 105.715 21.7454C106.445 21.7195 107.166 21.9218 107.776 22.324C108.326 22.7061 108.753 23.241 109.003 23.8627C109.277 24.5399 109.413 25.2653 109.403 25.996V26.532ZM107.459 25.2654C107.463 24.6992 107.275 24.1484 106.925 23.7027C106.769 23.5274 106.576 23.3888 106.36 23.2966C106.143 23.2044 105.91 23.161 105.675 23.1694C105.438 23.1645 105.204 23.2095 104.986 23.3014C104.768 23.3933 104.572 23.53 104.411 23.7027C104.035 24.1408 103.804 24.6851 103.752 25.26L107.459 25.2654Z" fill="white"/>
<path d="M110.912 24.1106C110.912 23.6333 110.888 22.9026 110.845 21.924H112.712C112.744 22.1666 112.773 22.4573 112.805 22.7906C112.837 23.124 112.853 23.4013 112.864 23.612C113.065 23.2721 113.293 22.9492 113.547 22.6467C113.767 22.388 114.033 22.172 114.331 22.0093C114.644 21.8401 114.996 21.7547 115.352 21.7613C115.622 21.7547 115.892 21.788 116.152 21.86L115.901 23.588C115.589 23.4976 115.261 23.4746 114.939 23.5206C114.618 23.5666 114.309 23.6804 114.035 23.8546C113.593 24.1827 113.209 24.5809 112.896 25.0333V30.6333H110.912V24.1106Z" fill="white"/>
<path d="M117.261 34.1987C117.018 34.1594 116.778 34.1015 116.544 34.0254L116.907 32.5721C117.075 32.6172 117.245 32.6537 117.416 32.6814C117.608 32.7155 117.802 32.7333 117.997 32.7347C118.886 32.7347 119.548 32.1667 119.981 31.0307L120.112 30.7081L116.899 21.9241H119.032L120.664 26.8334C120.873 27.4649 121.042 28.1088 121.171 28.7614C121.323 28.1321 121.499 27.5027 121.704 26.8734L123.331 21.9241H125.339L122.139 30.7481C121.897 31.4588 121.568 32.1369 121.16 32.7667C120.849 33.2425 120.423 33.633 119.923 33.9027C119.386 34.1647 118.794 34.2928 118.197 34.2761C117.884 34.2773 117.571 34.2514 117.261 34.1987Z" fill="white"/>
<path d="M42.2641 7.80127H45.8107L45.7121 8.65994H43.2987V10.3213H45.5734V11.1213H43.2987V12.9613H45.8401L45.7521 13.8333H42.2641V7.80127Z" fill="white"/>
<path d="M48.2614 10.7559L46.3947 7.80127H47.5787L48.8481 9.97194L50.1814 7.80127H51.3307L49.4641 10.7186L51.4827 13.8333H50.2827L48.8454 11.4599L47.3814 13.8333H46.2321L48.2614 10.7559Z" fill="white"/>
<path d="M52.248 7.80127H53.8747C54.6374 7.80127 55.2223 7.95683 55.6294 8.26794C55.8319 8.42727 55.9929 8.63315 56.0988 8.86808C56.2046 9.10301 56.2522 9.36002 56.2374 9.61727C56.2487 9.98471 56.1562 10.3479 55.9707 10.6653C55.7897 10.9636 55.5256 11.2027 55.2107 11.3533C54.8609 11.5186 54.4776 11.6008 54.0907 11.5933C53.8221 11.5895 53.5544 11.5618 53.2907 11.5106V13.8333H52.248V7.80127ZM54.8614 10.4946C54.9751 10.3853 55.0639 10.2527 55.1214 10.1059C55.179 9.95899 55.204 9.8014 55.1947 9.64394C55.2083 9.49303 55.1845 9.34111 55.1254 9.20158C55.0664 9.06206 54.9738 8.93923 54.856 8.84394C54.5559 8.66116 54.2067 8.57548 53.856 8.5986H53.2907V10.7319C53.4889 10.7676 53.6894 10.7881 53.8907 10.7933C54.2403 10.8195 54.587 10.7128 54.8614 10.4946Z" fill="white"/>
<path d="M57.2667 7.80127H58.3067V12.9426H60.8027L60.7147 13.8333H57.2667V7.80127Z" fill="white"/>
<path d="M62.3867 13.5373C61.9497 13.2914 61.5966 12.9198 61.3734 12.4707C61.1308 11.9729 61.011 11.4243 61.0241 10.8707C61.0113 10.2922 61.1394 9.71928 61.3974 9.20134C61.6339 8.73447 62.0056 8.34973 62.4641 8.09734C62.9773 7.82853 63.5517 7.69802 64.1307 7.71867C64.6782 7.70398 65.2199 7.83366 65.7014 8.09467C66.1358 8.34147 66.4861 8.71309 66.7067 9.16134C66.9446 9.65393 67.0624 10.1958 67.0507 10.7427C67.0652 11.3276 66.9361 11.9072 66.6747 12.4307C66.436 12.8959 66.0648 13.2801 65.6081 13.5347C65.1038 13.8029 64.5391 13.937 63.9681 13.924C63.416 13.938 62.8701 13.8045 62.3867 13.5373ZM65.0854 12.7987C65.3794 12.6039 65.608 12.3251 65.7414 11.9987C65.891 11.625 65.9645 11.2251 65.9574 10.8227C65.9641 10.4276 65.899 10.0345 65.7654 9.66267C65.6457 9.34058 65.432 9.06186 65.1521 8.86267C64.8274 8.66398 64.4541 8.55884 64.0734 8.55884C63.6927 8.55884 63.3194 8.66398 62.9947 8.86267C62.6999 9.0672 62.4703 9.35236 62.3334 9.68401C62.1817 10.0423 62.1063 10.4283 62.1121 10.8173C62.1056 11.2182 62.1762 11.6165 62.3201 11.9907C62.4478 12.333 62.6814 12.6257 62.9869 12.8262C63.2924 13.0266 63.6538 13.1244 64.0187 13.1053C64.3973 13.1147 64.7696 13.0076 65.0854 12.7987Z" fill="white"/>
<path d="M68.2107 7.80142H70.0987C70.6519 7.76227 71.2024 7.90763 71.6641 8.21476C71.8412 8.35384 71.9822 8.5336 72.075 8.73879C72.1679 8.94398 72.2099 9.16855 72.1974 9.39342C72.2037 9.68583 72.1377 9.97526 72.0054 10.2361C71.8897 10.4648 71.7281 10.6672 71.5307 10.8308C71.3543 10.9732 71.1562 11.0867 70.9441 11.1668L72.8107 13.8334H71.5974L70.0267 11.4334H69.2614V13.8334H68.2107V7.80142ZM69.8454 10.6548C70.077 10.6598 70.3065 10.6095 70.5147 10.5081C70.7023 10.418 70.8604 10.2765 70.9707 10.1001C71.0808 9.91176 71.137 9.69685 71.1334 9.47876C71.1441 9.35289 71.1234 9.22632 71.0732 9.11042C71.0229 8.99452 70.9446 8.89293 70.8454 8.81476C70.5954 8.65824 70.3024 8.58452 70.0081 8.60409H69.2534V10.6654L69.8454 10.6548Z" fill="white"/>
<path d="M73.6241 7.80127H77.1787L77.0774 8.65994H74.6774V10.3213H76.9307V11.1213H74.6561V12.9613H77.1974L77.1201 13.8333H73.6241V7.80127Z" fill="white"/>
<path d="M81.0454 7.80127H82.0854V13.8333H81.0454V7.80127Z" fill="white"/>
<path d="M84.8401 8.6706H82.9734L83.0641 7.80127H87.7574L87.6614 8.6706H85.8827V13.8333H84.8401V8.6706Z" fill="white"/>
<path d="M92.2774 13.5372C91.8411 13.2912 91.4889 12.9195 91.2667 12.4706C91.022 11.9735 90.9012 11.4245 90.9147 10.8706C90.902 10.2921 91.0301 9.71919 91.2881 9.20125C91.5252 8.73486 91.8968 8.35029 92.3547 8.09725C92.864 7.82711 93.4344 7.69301 94.0107 7.70791C94.5646 7.693 95.1124 7.8265 95.5974 8.09458C96.0324 8.34059 96.3829 8.71242 96.6027 9.16125C96.8415 9.65361 96.9603 10.1955 96.9494 10.7426C96.9642 11.3279 96.8341 11.9077 96.5707 12.4306C96.3328 12.8964 95.9614 13.2807 95.504 13.5346C95.0001 13.8035 94.4351 13.9376 93.8641 13.9239C93.3101 13.9388 92.7623 13.8053 92.2774 13.5372ZM94.9787 12.7986C95.2713 12.6029 95.4988 12.3243 95.6321 11.9986C95.7817 11.6249 95.8551 11.2251 95.8481 10.8226C95.8547 10.4275 95.7897 10.0345 95.6561 9.66258C95.5374 9.34067 95.3246 9.06192 95.0454 8.86258C94.7203 8.66366 94.3465 8.55839 93.9654 8.55839C93.5842 8.55839 93.2105 8.66366 92.8854 8.86258C92.5906 9.06711 92.361 9.35227 92.2241 9.68391C92.0736 10.0426 91.9983 10.4283 92.0027 10.8172C91.9963 11.2181 92.0669 11.6164 92.2107 11.9906C92.338 12.3195 92.5597 12.6034 92.8481 12.8066C93.1638 13.015 93.5367 13.1194 93.9147 13.1052C94.2922 13.113 94.6632 13.0061 94.9787 12.7986Z" fill="white"/>
<path d="M98.1041 7.80127H99.2987L102.283 12.4759C102.256 12.0306 102.245 11.6226 102.245 11.2466V7.80127H103.211V13.8333H102.053L99.0241 9.08394C99.0534 9.61727 99.0694 10.0999 99.0694 10.5186V13.8333H98.1041V7.80127Z" fill="white"/>
<path fill-rule="evenodd" clip-rule="evenodd" d="M27.5974 7.83325H16.5281C11.3094 7.83325 9.40005 9.74259 9.40005 14.9613V26.0386C9.40005 31.2573 11.3094 33.1666 16.5281 33.1666H27.5974C32.816 33.1666 34.728 31.2573 34.728 26.0386V14.9613C34.7334 9.74259 32.824 7.83325 27.5974 7.83325Z" fill="#C8102E"/>
<path d="M14.4161 20.5H15.0881V23.8147H14.4161V22.468H12.8987V23.8147H12.2267V20.5H12.8987V21.8333H14.4161V20.5ZM18.2027 22.396C18.2027 22.9293 17.9361 23.2227 17.4507 23.2227C16.9654 23.2227 16.6934 22.9293 16.6934 22.3667V20.5H16.0214V22.3933C16.0214 23.324 16.5387 23.8573 17.4401 23.8573C18.3414 23.8573 18.8747 23.324 18.8747 22.364V20.5H18.2027V22.396ZM25.9681 22.7773L25.2161 20.5H24.6641L23.9174 22.78L23.1841 20.5H22.4694L23.6241 23.8147H24.1814L24.9307 21.6387L25.6827 23.8147H26.2454L27.4001 20.5H26.7014L25.9681 22.7773ZM28.6027 22.3853H29.8267V21.7853H28.6027V21.108H30.3787V20.5H27.9414V23.8067H30.4427V23.2093H28.6027V22.3853ZM31.2427 23.8067H31.9067V20.5H31.2427V23.8067ZM20.2027 23.1213L19.9014 23.8093H19.2161L20.6641 20.5H21.2561L22.7094 23.8093H22.0161L21.7307 23.124L20.2027 23.1213ZM20.4534 22.524H21.4641L20.9574 21.34L20.4534 22.524Z" fill="white"/>
<path d="M22.0667 16.2841C20.9488 16.2834 19.8768 15.839 19.0863 15.0485C18.2958 14.258 17.8514 13.1861 17.8507 12.0681H18.4454C18.4454 13.0286 18.8269 13.9497 19.506 14.6288C20.1852 15.3079 21.1063 15.6894 22.0667 15.6894C23.0271 15.6894 23.9482 15.3079 24.6274 14.6288C25.3065 13.9497 25.688 13.0286 25.688 12.0681H26.2827C26.282 13.1861 25.8376 14.258 25.0471 15.0485C24.2566 15.839 23.1846 16.2834 22.0667 16.2841Z" fill="white"/>
</g>
<defs>
<clipPath id="clip0_512_9470">
<rect width="133.333" height="40" fill="white" transform="translate(0.664062 0.5)"/>
</clipPath>
</defs>
</svg>
