<svg width="120" height="41" viewBox="0 0 120 41" fill="none" xmlns="http://www.w3.org/2000/svg">
<g clip-path="url(#clip0_512_9435)">
<path d="M110.135 0.499886H9.53468C9.16798 0.499886 8.80568 0.499886 8.43995 0.501886C8.1338 0.503886 7.83009 0.509696 7.521 0.514586C6.84951 0.522488 6.17961 0.581562 5.5171 0.691296C4.85552 0.803418 4.21467 1.0148 3.61622 1.3183C3.0185 1.62436 2.47235 2.02205 1.99757 2.49696C1.5203 2.97052 1.12246 3.5179 0.81935 4.11805C0.5154 4.71699 0.304641 5.35882 0.19435 6.02137C0.0830109 6.68307 0.0230984 7.35241 0.01515 8.02337C0.00587 8.32997 0.00489 8.63759 0 8.94423V32.0585C0.00489 32.369 0.00587 32.6698 0.01515 32.9804C0.0231008 33.6513 0.0830134 34.3206 0.19435 34.9823C0.304336 35.6452 0.515108 36.2874 0.81935 36.8866C1.12233 37.4848 1.52022 38.03 1.99757 38.5009C2.47054 38.9779 3.01705 39.3759 3.61622 39.6796C4.21467 39.9839 4.85545 40.1965 5.5171 40.3104C6.17972 40.4192 6.84956 40.4783 7.521 40.4872C7.83009 40.494 8.1338 40.4979 8.43995 40.4979C8.80567 40.4999 9.168 40.4999 9.53468 40.4999H110.135C110.494 40.4999 110.859 40.4999 111.219 40.4979C111.523 40.4979 111.836 40.494 112.141 40.4872C112.811 40.4788 113.479 40.4197 114.141 40.3104C114.804 40.1957 115.448 39.9831 116.049 39.6796C116.647 39.3757 117.193 38.9777 117.666 38.5009C118.142 38.0281 118.541 37.4833 118.848 36.8866C119.15 36.287 119.358 35.6448 119.467 34.9823C119.578 34.3205 119.64 33.6514 119.652 32.9804C119.656 32.6698 119.656 32.369 119.656 32.0585C119.664 31.6952 119.664 31.3339 119.664 30.9647V10.036C119.664 9.66981 119.664 9.30653 119.656 8.94423C119.656 8.63759 119.656 8.32997 119.652 8.02333C119.64 7.35231 119.578 6.68312 119.467 6.02133C119.358 5.35917 119.149 4.71739 118.848 4.11801C118.23 2.91508 117.252 1.93591 116.049 1.31821C115.448 1.01545 114.804 0.804126 114.141 0.691206C113.48 0.580989 112.811 0.521894 112.141 0.514446C111.836 0.509566 111.523 0.503706 111.219 0.501756C110.859 0.499756 110.494 0.499756 110.135 0.499756V0.499886Z" fill="#A6A6A6"/>
<path d="M8.44483 39.625C8.14015 39.625 7.84283 39.6211 7.54054 39.6143C6.91432 39.6061 6.28957 39.5516 5.6714 39.4512C5.09499 39.3519 4.5366 39.1673 4.01466 38.9033C3.4975 38.6415 3.02581 38.2983 2.61766 37.8867C2.2036 37.48 1.85888 37.0082 1.59715 36.4902C1.33254 35.9688 1.14941 35.4099 1.05415 34.833C0.951275 34.2131 0.895615 33.5863 0.887651 32.958C0.881311 32.7471 0.873011 32.0449 0.873011 32.0449V8.94434C0.873011 8.94434 0.881851 8.25293 0.887701 8.0498C0.895327 7.42248 0.950663 6.79665 1.05323 6.17773C1.14867 5.59925 1.33194 5.03875 1.59669 4.51563C1.85746 3.99794 2.20027 3.52586 2.61183 3.11768C3.02293 2.70562 3.49613 2.3606 4.01417 2.09521C4.53492 1.83209 5.09225 1.64873 5.66749 1.55127C6.28769 1.44984 6.91461 1.395 7.543 1.38721L8.44532 1.375H111.214L112.127 1.3877C112.75 1.3951 113.371 1.44945 113.985 1.55029C114.566 1.64898 115.13 1.83362 115.656 2.09814C116.694 2.63299 117.539 3.47916 118.071 4.51807C118.332 5.03758 118.512 5.59351 118.606 6.16699C118.71 6.79099 118.768 7.42174 118.78 8.0542C118.783 8.3374 118.783 8.6416 118.783 8.94434C118.791 9.31934 118.791 9.67627 118.791 10.0361V30.9648C118.791 31.3281 118.791 31.6826 118.783 32.04C118.783 32.3652 118.783 32.6631 118.779 32.9697C118.768 33.5909 118.71 34.2104 118.608 34.8232C118.515 35.4043 118.333 35.9675 118.068 36.4932C117.805 37.0056 117.462 37.4733 117.053 37.8789C116.644 38.2927 116.172 38.6379 115.653 38.9014C115.128 39.1674 114.566 39.3527 113.985 39.4512C113.367 39.5522 112.742 39.6067 112.116 39.6143C111.823 39.6211 111.517 39.625 111.219 39.625L110.135 39.627L8.44483 39.625Z" fill="black"/>
<path d="M24.7689 20.8006C24.7796 19.9659 25.0013 19.1475 25.4134 18.4216C25.8254 17.6956 26.4143 17.0857 27.1254 16.6485C26.6737 16.0034 26.0778 15.4724 25.3849 15.0979C24.6921 14.7233 23.9215 14.5155 23.1343 14.4908C21.455 14.3146 19.8271 15.4957 18.9714 15.4957C18.0991 15.4957 16.7816 14.5083 15.3629 14.5375C14.4452 14.5672 13.5509 14.834 12.767 15.3121C11.9831 15.7901 11.3364 16.4631 10.89 17.2654C8.95596 20.6138 10.3985 25.5349 12.2512 28.2415C13.1781 29.5668 14.2613 31.0473 15.6788 30.9948C17.0658 30.9372 17.5839 30.1103 19.2582 30.1103C20.917 30.1103 21.403 30.9948 22.8492 30.9614C24.3376 30.9372 25.2753 29.6302 26.1697 28.2923C26.8357 27.3479 27.3481 26.3042 27.6881 25.1997C26.8234 24.834 26.0855 24.2218 25.5664 23.4395C25.0472 22.6572 24.7699 21.7394 24.7689 20.8006Z" fill="white"/>
<path d="M22.0373 12.7108C22.8488 11.7366 23.2486 10.4844 23.1518 9.22021C21.9119 9.35044 20.7667 9.94299 19.9442 10.8798C19.5421 11.3375 19.2341 11.8699 19.0378 12.4467C18.8416 13.0235 18.7609 13.6333 18.8005 14.2412C19.4206 14.2476 20.0341 14.1132 20.5948 13.8481C21.1555 13.583 21.6487 13.1942 22.0373 12.7108Z" fill="white"/>
<path d="M42.3023 27.6397H37.5689L36.4322 30.9961H34.4273L38.9107 18.5781H40.9937L45.4771 30.9961H43.438L42.3023 27.6397ZM38.0591 26.0908H41.8111L39.9615 20.6436H39.9097L38.0591 26.0908Z" fill="white"/>
<path d="M55.1597 26.4697C55.1597 29.2832 53.6538 31.0908 51.3814 31.0908C50.8057 31.1209 50.2332 30.9883 49.7294 30.7082C49.2256 30.428 48.8109 30.0117 48.5327 29.5068H48.4897V33.9912H46.6313V21.9423H48.4302V23.4482H48.4644C48.7553 22.9457 49.1771 22.5316 49.6847 22.2497C50.1923 21.9679 50.7669 21.8289 51.3472 21.8476C53.645 21.8476 55.1597 23.664 55.1597 26.4697ZM53.2495 26.4697C53.2495 24.6367 52.3023 23.4316 50.8569 23.4316C49.437 23.4316 48.4819 24.6621 48.4819 26.4697C48.4819 28.2939 49.437 29.5156 50.8569 29.5156C52.3023 29.5156 53.2495 28.3193 53.2495 26.4697Z" fill="white"/>
<path d="M65.1245 26.4697C65.1245 29.2832 63.6187 31.0908 61.3462 31.0908C60.7706 31.1209 60.1981 30.9883 59.6943 30.7081C59.1905 30.428 58.7757 30.0117 58.4976 29.5068H58.4546V33.9912H56.5962V21.9423H58.395V23.4482H58.4292C58.7201 22.9457 59.1419 22.5315 59.6495 22.2497C60.1571 21.9679 60.7317 21.8289 61.312 21.8476C63.6099 21.8476 65.1245 23.664 65.1245 26.4697ZM63.2144 26.4697C63.2144 24.6367 62.2671 23.4316 60.8218 23.4316C59.4019 23.4316 58.4468 24.6621 58.4468 26.4697C58.4468 28.2939 59.4019 29.5156 60.8218 29.5156C62.2671 29.5156 63.2144 28.3193 63.2144 26.4697H63.2144Z" fill="white"/>
<path d="M71.7105 27.5362C71.8482 28.7676 73.0445 29.5762 74.6792 29.5762C76.2456 29.5762 77.3726 28.7676 77.3726 27.6572C77.3726 26.6934 76.6929 26.1162 75.0835 25.7207L73.4742 25.333C71.1939 24.7822 70.1353 23.7158 70.1353 21.9854C70.1353 19.8428 72.0025 18.3711 74.6538 18.3711C77.2778 18.3711 79.0767 19.8428 79.1372 21.9854H77.2612C77.1489 20.7461 76.1245 19.9981 74.6274 19.9981C73.1304 19.9981 72.106 20.7549 72.106 21.8565C72.106 22.7344 72.7603 23.251 74.3608 23.6465L75.729 23.9824C78.2768 24.5849 79.3354 25.6084 79.3354 27.4248C79.3354 29.748 77.4849 31.2031 74.5415 31.2031C71.7876 31.2031 69.9282 29.7822 69.8081 27.5361L71.7105 27.5362Z" fill="white"/>
<path d="M83.3462 19.7998V21.9424H85.0679V23.4141H83.3462V28.4053C83.3462 29.1807 83.6909 29.542 84.4478 29.542C84.6522 29.5384 84.8562 29.5241 85.0591 29.499V30.9619C84.7188 31.0255 84.373 31.0543 84.0269 31.0478C82.1939 31.0478 81.479 30.3593 81.479 28.6035V23.4141H80.1626V21.9424H81.479V19.7998H83.3462Z" fill="white"/>
<path d="M86.065 26.4697C86.065 23.6211 87.7427 21.8311 90.3589 21.8311C92.9839 21.8311 94.6539 23.6211 94.6539 26.4697C94.6539 29.3262 92.9927 31.1084 90.3589 31.1084C87.7261 31.1084 86.065 29.3262 86.065 26.4697ZM92.7603 26.4697C92.7603 24.5156 91.8648 23.3623 90.3589 23.3623C88.8531 23.3623 87.9585 24.5244 87.9585 26.4697C87.9585 28.4316 88.8531 29.5762 90.3589 29.5762C91.8648 29.5762 92.7603 28.4316 92.7603 26.4697H92.7603Z" fill="white"/>
<path d="M96.1861 21.9425H97.9585V23.4835H98.0015C98.1214 23.0022 98.4034 22.5769 98.8 22.279C99.1966 21.9811 99.6836 21.8288 100.179 21.8478C100.393 21.847 100.607 21.8703 100.816 21.9171V23.6554C100.546 23.5728 100.264 23.5348 99.981 23.5431C99.711 23.5321 99.4418 23.5797 99.192 23.6826C98.9422 23.7855 98.7175 23.9412 98.5336 24.1391C98.3496 24.337 98.2106 24.5724 98.1262 24.8291C98.0418 25.0857 98.0139 25.3576 98.0444 25.6261V30.9962H96.1861L96.1861 21.9425Z" fill="white"/>
<path d="M109.384 28.3369C109.134 29.9805 107.534 31.1084 105.486 31.1084C102.852 31.1084 101.217 29.3437 101.217 26.5127C101.217 23.6729 102.861 21.8311 105.408 21.8311C107.913 21.8311 109.488 23.5518 109.488 26.2969V26.9336H103.093V27.0459C103.064 27.3791 103.105 27.7148 103.216 28.0306C103.326 28.3464 103.502 28.6352 103.732 28.8778C103.963 29.1203 104.242 29.3111 104.552 29.4374C104.861 29.5637 105.195 29.6226 105.529 29.6103C105.968 29.6515 106.409 29.5498 106.785 29.3203C107.162 29.0909 107.455 28.746 107.62 28.3369L109.384 28.3369ZM103.102 25.6348H107.628C107.645 25.3352 107.6 25.0354 107.495 24.7541C107.39 24.4729 107.229 24.2164 107.02 24.0006C106.812 23.7849 106.561 23.6145 106.283 23.5003C106.006 23.3861 105.708 23.3305 105.408 23.3369C105.105 23.3351 104.805 23.3933 104.525 23.508C104.245 23.6227 103.99 23.7918 103.776 24.0054C103.562 24.2191 103.392 24.473 103.276 24.7527C103.16 25.0323 103.101 25.3321 103.102 25.6348V25.6348Z" fill="white"/>
<path d="M37.8262 9.23065C38.2158 9.20269 38.6068 9.26155 38.9709 9.40298C39.335 9.54441 39.6632 9.76489 39.9318 10.0485C40.2003 10.3321 40.4026 10.6718 40.524 11.0431C40.6454 11.4144 40.6829 11.808 40.6338 12.1955C40.6338 14.1017 39.6035 15.1975 37.8262 15.1975H35.6709V9.23065H37.8262ZM36.5977 14.3536H37.7227C38.0011 14.3703 38.2797 14.3246 38.5382 14.22C38.7968 14.1154 39.0287 13.9545 39.2172 13.7489C39.4057 13.5433 39.546 13.2983 39.6279 13.0317C39.7097 12.7651 39.7311 12.4836 39.6904 12.2076C39.7281 11.9328 39.7046 11.653 39.6215 11.3884C39.5384 11.1237 39.3977 10.8807 39.2097 10.6768C39.0216 10.4729 38.7908 10.313 38.5337 10.2088C38.2766 10.1046 37.9997 10.0585 37.7227 10.0739H36.5977V14.3536Z" fill="white"/>
<path d="M41.6807 12.944C41.6524 12.6481 41.6862 12.3496 41.7801 12.0675C41.8739 11.7854 42.0257 11.5261 42.2256 11.3061C42.4255 11.0861 42.6693 10.9103 42.9411 10.7901C43.213 10.6698 43.5069 10.6077 43.8042 10.6077C44.1015 10.6077 44.3955 10.6698 44.6673 10.7901C44.9392 10.9103 45.1829 11.0861 45.3828 11.3061C45.5828 11.5261 45.7345 11.7854 45.8284 12.0675C45.9222 12.3496 45.9561 12.6481 45.9278 12.944C45.9566 13.2403 45.9231 13.5392 45.8296 13.8218C45.736 14.1043 45.5843 14.3641 45.3843 14.5845C45.1843 14.8049 44.9404 14.9811 44.6683 15.1016C44.3962 15.2221 44.1018 15.2844 43.8042 15.2844C43.5066 15.2844 43.2123 15.2221 42.9401 15.1016C42.668 14.9811 42.4241 14.8049 42.2241 14.5845C42.0241 14.3641 41.8725 14.1043 41.7789 13.8218C41.6853 13.5392 41.6518 13.2403 41.6807 12.944ZM45.0137 12.944C45.0137 11.968 44.5752 11.3972 43.8057 11.3972C43.0332 11.3972 42.5987 11.968 42.5987 12.9441C42.5987 13.9279 43.0333 14.4943 43.8057 14.4943C44.5752 14.4943 45.0137 13.924 45.0137 12.944H45.0137Z" fill="white"/>
<path d="M51.5733 15.1975H50.6514L49.7207 11.8811H49.6504L48.7237 15.1975H47.8106L46.5694 10.6946H47.4707L48.2774 14.1306H48.3438L49.2696 10.6946H50.1221L51.0479 14.1306H51.1182L51.9209 10.6946H52.8096L51.5733 15.1975Z" fill="white"/>
<path d="M53.8535 10.6946H54.709V11.41H54.7754C54.8881 11.153 55.0781 10.9377 55.3189 10.7939C55.5598 10.65 55.8395 10.585 56.1192 10.6077C56.3383 10.5912 56.5583 10.6243 56.7629 10.7044C56.9675 10.7845 57.1514 10.9096 57.3011 11.0704C57.4508 11.2313 57.5624 11.4237 57.6276 11.6335C57.6928 11.8434 57.7099 12.0652 57.6777 12.2825V15.1975H56.7891V12.5057C56.7891 11.782 56.4746 11.4222 55.8174 11.4222C55.6686 11.4152 55.5201 11.4406 55.3821 11.4964C55.244 11.5522 55.1197 11.6372 55.0176 11.7456C54.9154 11.854 54.8379 11.9832 54.7904 12.1243C54.7429 12.2655 54.7264 12.4152 54.7422 12.5633V15.1976H53.8535L53.8535 10.6946Z" fill="white"/>
<path d="M59.0938 8.93677H59.9824V15.1975H59.0938V8.93677Z" fill="white"/>
<path d="M61.2178 12.9441C61.1895 12.6482 61.2234 12.3496 61.3172 12.0675C61.4111 11.7854 61.5629 11.5261 61.7628 11.3061C61.9628 11.0861 62.2065 10.9104 62.4784 10.7901C62.7503 10.6698 63.0443 10.6077 63.3416 10.6077C63.6389 10.6077 63.9329 10.6698 64.2047 10.7901C64.4766 10.9104 64.7203 11.0861 64.9203 11.3061C65.1203 11.5261 65.272 11.7854 65.3659 12.0675C65.4598 12.3496 65.4936 12.6482 65.4653 12.9441C65.4942 13.2404 65.4607 13.5393 65.3671 13.8219C65.2734 14.1044 65.1217 14.3642 64.9217 14.5846C64.7217 14.805 64.4778 14.9811 64.2057 15.1017C63.9335 15.2222 63.6392 15.2845 63.3416 15.2845C63.0439 15.2845 62.7496 15.2222 62.4775 15.1017C62.2053 14.9811 61.9614 14.805 61.7614 14.5846C61.5614 14.3642 61.4097 14.1044 61.3161 13.8219C61.2225 13.5393 61.189 13.2404 61.2178 12.9441ZM64.5508 12.9441C64.5508 11.9681 64.1123 11.3973 63.3428 11.3973C62.5703 11.3973 62.1358 11.9681 62.1358 12.9441C62.1358 13.928 62.5704 14.4944 63.3428 14.4944C64.1123 14.4944 64.5508 13.9241 64.5508 12.9441H64.5508Z" fill="white"/>
<path d="M66.4009 13.9241C66.4009 13.1135 67.0044 12.6462 68.0757 12.5798L69.2954 12.5095V12.1208C69.2954 11.6453 68.981 11.3767 68.3736 11.3767C67.8775 11.3767 67.5337 11.5588 67.4351 11.8772H66.5747C66.6655 11.1038 67.3931 10.6077 68.4146 10.6077C69.5435 10.6077 70.1802 11.1697 70.1802 12.1208V15.1975H69.3247V14.5647H69.2544C69.1117 14.7917 68.9113 14.9767 68.6737 15.1009C68.4361 15.2252 68.1697 15.2841 67.9019 15.2717C67.7128 15.2914 67.5218 15.2712 67.341 15.2125C67.1603 15.1538 66.9938 15.0579 66.8524 14.9309C66.711 14.8039 66.5977 14.6487 66.52 14.4753C66.4422 14.3019 66.4016 14.1141 66.4009 13.9241ZM69.2954 13.5393V13.1628L68.1958 13.2331C67.5757 13.2746 67.2944 13.4856 67.2944 13.8826C67.2944 14.2878 67.646 14.5237 68.1294 14.5237C68.2711 14.538 68.4142 14.5237 68.5502 14.4816C68.6862 14.4395 68.8123 14.3705 68.9211 14.2787C69.0299 14.1868 69.1191 14.074 69.1834 13.947C69.2477 13.82 69.2858 13.6813 69.2954 13.5393Z" fill="white"/>
<path d="M71.3482 12.9441C71.3482 11.5213 72.0796 10.6199 73.2173 10.6199C73.4987 10.6069 73.778 10.6743 74.0225 10.8142C74.2671 10.9541 74.4667 11.1607 74.5982 11.4099H74.6646V8.93677H75.5532V15.1975H74.7017V14.4861H74.6314C74.4898 14.7336 74.2831 14.9376 74.0339 15.0761C73.7846 15.2146 73.5023 15.2822 73.2173 15.2717C72.0718 15.2718 71.3482 14.3704 71.3482 12.9441ZM72.2662 12.9441C72.2662 13.8992 72.7164 14.4739 73.4693 14.4739C74.2183 14.4739 74.6812 13.8909 74.6812 12.948C74.6812 12.0095 74.2134 11.4182 73.4693 11.4182C72.7212 11.4182 72.2661 11.9968 72.2661 12.9441H72.2662Z" fill="white"/>
<path d="M79.23 12.944C79.2017 12.6481 79.2355 12.3496 79.3294 12.0675C79.4232 11.7854 79.575 11.5261 79.7749 11.3061C79.9749 11.0861 80.2186 10.9103 80.4904 10.7901C80.7623 10.6698 81.0563 10.6077 81.3535 10.6077C81.6508 10.6077 81.9448 10.6698 82.2166 10.7901C82.4885 10.9103 82.7322 11.0861 82.9321 11.3061C83.1321 11.5261 83.2838 11.7854 83.3777 12.0675C83.4715 12.3496 83.5054 12.6481 83.4771 12.944C83.5059 13.2403 83.4725 13.5392 83.3789 13.8218C83.2853 14.1043 83.1336 14.3641 82.9336 14.5845C82.7336 14.8049 82.4897 14.9811 82.2176 15.1016C81.9455 15.2221 81.6512 15.2844 81.3535 15.2844C81.0559 15.2844 80.7616 15.2221 80.4895 15.1016C80.2173 14.9811 79.9734 14.8049 79.7734 14.5845C79.5734 14.3641 79.4218 14.1043 79.3282 13.8218C79.2346 13.5392 79.2012 13.2403 79.23 12.944ZM82.563 12.944C82.563 11.968 82.1245 11.3972 81.355 11.3972C80.5825 11.3972 80.148 11.968 80.148 12.9441C80.148 13.9279 80.5826 14.4943 81.355 14.4943C82.1245 14.4943 82.563 13.924 82.563 12.944Z" fill="white"/>
<path d="M84.6694 10.6946H85.5249V11.41H85.5913C85.704 11.153 85.894 10.9377 86.1349 10.7939C86.3757 10.65 86.6555 10.585 86.9351 10.6077C87.1542 10.5912 87.3742 10.6243 87.5788 10.7044C87.7834 10.7845 87.9673 10.9096 88.117 11.0704C88.2667 11.2313 88.3783 11.4237 88.4435 11.6335C88.5087 11.8434 88.5258 12.0652 88.4937 12.2825V15.1975H87.605V12.5057C87.605 11.782 87.2906 11.4222 86.6333 11.4222C86.4846 11.4152 86.3361 11.4406 86.198 11.4964C86.0599 11.5522 85.9356 11.6372 85.8335 11.7456C85.7313 11.854 85.6539 11.9832 85.6063 12.1243C85.5588 12.2655 85.5424 12.4152 85.5581 12.5633V15.1976H84.6694V10.6946Z" fill="white"/>
<path d="M93.5152 9.57349V10.7151H94.4908V11.4636H93.5152V13.7791C93.5152 14.2507 93.7095 14.4573 94.1519 14.4573C94.2651 14.4569 94.3783 14.4501 94.4908 14.4368V15.177C94.3312 15.2055 94.1695 15.2207 94.0073 15.2224C93.0191 15.2224 92.6255 14.8747 92.6255 14.0066V11.4636H91.9107V10.715H92.6255V9.57349H93.5152Z" fill="white"/>
<path d="M95.7046 8.93677H96.5855V11.4182H96.6558C96.7739 11.1589 96.9691 10.9423 97.2148 10.798C97.4605 10.6536 97.7448 10.5885 98.0288 10.6116C98.2467 10.5997 98.4646 10.6361 98.6669 10.7181C98.8692 10.8002 99.0509 10.9259 99.199 11.0862C99.3471 11.2465 99.458 11.4376 99.5238 11.6457C99.5896 11.8539 99.6086 12.0739 99.5796 12.2903V15.1975H98.69V12.5095C98.69 11.7903 98.355 11.426 97.7271 11.426C97.5744 11.4135 97.4207 11.4345 97.277 11.4875C97.1332 11.5406 97.0027 11.6244 96.8947 11.7332C96.7868 11.8419 96.7038 11.9729 96.6518 12.1171C96.5997 12.2612 96.5797 12.415 96.5933 12.5676V15.1975H95.7047L95.7046 8.93677Z" fill="white"/>
<path d="M104.761 13.9818C104.641 14.3933 104.379 14.7493 104.022 14.9874C103.666 15.2256 103.236 15.3307 102.81 15.2845C102.513 15.2923 102.219 15.2355 101.946 15.118C101.674 15.0004 101.43 14.825 101.232 14.6039C101.034 14.3827 100.887 14.1212 100.8 13.8374C100.713 13.5535 100.689 13.2543 100.73 12.9603C100.69 12.6654 100.715 12.3655 100.801 12.0808C100.888 11.7961 101.034 11.5334 101.231 11.3103C101.428 11.0872 101.671 10.909 101.942 10.7878C102.214 10.6666 102.509 10.6052 102.806 10.6077C104.059 10.6077 104.815 11.4637 104.815 12.8777V13.1878H101.635V13.2376C101.621 13.4029 101.642 13.5692 101.696 13.726C101.75 13.8827 101.837 14.0264 101.95 14.1479C102.062 14.2693 102.2 14.3658 102.352 14.4312C102.504 14.4966 102.669 14.5295 102.834 14.5276C103.047 14.5532 103.262 14.5149 103.453 14.4177C103.644 14.3205 103.801 14.1687 103.906 13.9817L104.761 13.9818ZM101.635 12.5306H103.91C103.921 12.3795 103.9 12.2277 103.849 12.0849C103.798 11.9422 103.718 11.8117 103.614 11.7019C103.509 11.592 103.383 11.5052 103.243 11.4471C103.103 11.3889 102.953 11.3606 102.801 11.3641C102.648 11.3622 102.495 11.391 102.353 11.449C102.21 11.5069 102.081 11.5928 101.972 11.7015C101.864 11.8102 101.778 11.9396 101.72 12.082C101.662 12.2244 101.633 12.3769 101.635 12.5306H101.635Z" fill="white"/>
</g>
<defs>
<clipPath id="clip0_512_9435">
<rect width="119.664" height="40" fill="white" transform="translate(0 0.5)"/>
</clipPath>
</defs>
</svg>
