<svg width="25" height="24" viewBox="0 0 25 24" fill="none" xmlns="http://www.w3.org/2000/svg">
<path fill-rule="evenodd" clip-rule="evenodd" d="M14.6082 2.4402C14.9409 2.52854 15.2196 2.75548 15.3735 3.06334C15.9538 4.22389 16.3869 4.92826 16.8226 5.49935C17.2636 6.07743 17.7301 6.55066 18.4398 7.26033C20.0798 8.9003 20.9001 11.0521 20.9001 13.2C20.9001 15.3479 20.0798 17.4998 18.4398 19.1397C15.1594 22.4201 9.8408 22.4201 6.5604 19.1397C4.92044 17.4998 4.1001 15.3479 4.1001 13.2C4.10009 11.0521 4.92043 8.9003 6.5604 7.26033C6.9036 6.91713 7.41974 6.81446 7.86815 7.0002C8.31656 7.18594 8.60893 7.6235 8.60893 8.10886C8.60893 9.45263 8.69284 10.4765 9.08587 11.2932C9.30199 11.7423 9.63912 12.1814 10.2202 12.5732C10.3589 11.3002 10.6131 9.74937 10.9566 8.27732C11.227 7.11834 11.5634 5.96127 11.9637 4.99639C12.1639 4.51377 12.3904 4.05424 12.6475 3.65748C12.8978 3.27128 13.2194 2.87829 13.6346 2.60154C13.921 2.41061 14.2755 2.35186 14.6082 2.4402ZM15.0457 18.1456C13.6398 19.5515 11.3604 19.5515 9.95451 18.1456C9.25157 17.4426 8.9001 16.5213 8.9001 15.6C8.9001 15.6 9.95451 16.2 11.9002 16.2C11.9002 15 12.5002 11.4 13.4002 10.8C14.0002 12 14.3427 12.3515 15.0457 13.0544C15.7486 13.7574 16.1001 14.6787 16.1001 15.6C16.1001 16.5213 15.7486 17.4426 15.0457 18.1456Z" fill="#006D39"/>
</svg>
