<svg width="136" height="41" viewBox="0 0 136 41" fill="none" xmlns="http://www.w3.org/2000/svg">
<g clip-path="url(#clip0_511_9423)">
<path fill-rule="evenodd" clip-rule="evenodd" d="M130.662 40.5H5.6659C2.90918 40.5 0.664062 38.2456 0.664062 35.5V5.5C0.664062 2.74439 2.90918 0.5 5.6659 0.5H130.662C133.416 0.5 135.664 2.74439 135.664 5.5V35.5C135.664 38.2456 133.416 40.5 130.662 40.5Z" fill="black"/>
<path fill-rule="evenodd" clip-rule="evenodd" d="M130.662 1.3005C132.974 1.3005 134.867 3.18828 134.867 5.5V35.5C134.867 37.8117 132.987 39.6995 130.662 39.6995H5.6659C3.35373 39.6995 1.46128 37.8117 1.46128 35.5V5.5C1.46128 3.18828 3.34131 1.3005 5.6659 1.3005H130.662ZM130.662 0.5H5.6659C2.90918 0.5 0.664062 2.75436 0.664062 5.5V35.5C0.664062 38.2556 2.90918 40.5 5.6659 40.5H130.662C133.416 40.5 135.664 38.2556 135.664 35.5V5.5C135.664 2.75436 133.416 0.5 130.662 0.5Z" fill="#A6A6A6"/>
<path d="M71.7824 13.732C70.8809 13.732 70.1209 13.4153 69.5199 12.7918C68.9239 12.1858 68.5911 11.3504 68.606 10.4975C68.606 9.58732 68.9139 8.81675 69.5199 8.20577C70.1184 7.58233 70.8784 7.26562 71.7799 7.26562C72.6715 7.26562 73.4315 7.58233 74.0424 8.20577C74.6484 8.8367 74.9563 9.60727 74.9563 10.4975C74.9464 11.4103 74.6384 12.1808 74.0424 12.7893C73.4439 13.4177 72.6839 13.732 71.7824 13.732ZM44.9579 13.732C44.0762 13.732 43.3113 13.4202 42.6855 12.8043C42.0646 12.1908 41.7492 11.4153 41.7492 10.5C41.7492 9.58483 42.0646 8.80927 42.6855 8.1958C43.2989 7.57984 44.0638 7.26812 44.9579 7.26812C45.395 7.26812 45.8197 7.3554 46.227 7.53246C46.6268 7.70453 46.9522 7.93894 47.1931 8.22572L47.2527 8.29804L46.5796 8.96139L46.5101 8.87909C46.1301 8.42523 45.621 8.20328 44.948 8.20328C44.347 8.20328 43.8229 8.41774 43.3908 8.84169C42.9562 9.26812 42.7351 9.82672 42.7351 10.5025C42.7351 11.1783 42.9562 11.7369 43.3908 12.1634C43.8229 12.5873 44.347 12.8018 44.948 12.8018C45.5887 12.8018 46.1276 12.5873 46.5474 12.1634C46.7957 11.914 46.9497 11.5649 47.0043 11.1235H44.8461V10.1908H47.9307L47.9431 10.2756C47.9654 10.4327 47.9878 10.5948 47.9878 10.7444C47.9878 11.6048 47.7295 12.3005 47.2179 12.8143C46.6368 13.4227 45.8768 13.732 44.9579 13.732ZM80.6237 13.5998H79.6725L76.7594 8.91899L76.7842 9.76188V13.5973H75.833V7.40029H76.9183L76.9481 7.44767L79.6874 11.8566L79.6626 11.0162V7.40029H80.6237V13.5998ZM64.6348 13.5998H63.6712V8.33296H61.9998V7.40029H66.3038V8.33296H64.6323V13.5998H64.6348ZM61.215 13.5998H60.2539V7.40029H61.215V13.5998ZM55.8134 13.5998H54.8522V8.33296H53.1808V7.40029H57.4848V8.33296H55.8134V13.5998ZM52.5724 13.5898H48.8868V7.40029H52.5724V8.33296H49.8504V10.0337H52.3066V10.9564H49.8504V12.6571H52.5724V13.5898ZM70.2252 12.1509C70.6549 12.5823 71.1764 12.7993 71.7824 12.7993C72.4058 12.7993 72.9149 12.5873 73.3396 12.1509C73.7618 11.727 73.9753 11.1709 73.9753 10.5C73.9753 9.82922 73.7618 9.27061 73.342 8.84917C72.9124 8.41774 72.3884 8.20079 71.7849 8.20079C71.1615 8.20079 70.6524 8.41276 70.2302 8.84917C69.808 9.27311 69.5944 9.82922 69.5944 10.5C69.5944 11.1709 69.8055 11.7295 70.2252 12.1509Z" fill="white"/>
<path fill-rule="evenodd" clip-rule="evenodd" d="M68.5166 22.2557C66.1697 22.2557 64.2673 24.0437 64.2673 26.51C64.2673 28.9539 66.1821 30.7644 68.5166 30.7644C70.8636 30.7644 72.766 28.9639 72.766 26.51C72.766 24.0437 70.8636 22.2557 68.5166 22.2557ZM68.5166 29.0786C67.2327 29.0786 66.1275 28.0113 66.1275 26.5001C66.1275 24.9664 67.2351 23.9215 68.5166 23.9215C69.8006 23.9215 70.9058 24.9664 70.9058 26.5001C70.9083 28.0212 69.8006 29.0786 68.5166 29.0786ZM59.2456 22.2557C56.8987 22.2557 54.9963 24.0437 54.9963 26.51C54.9963 28.9539 56.9111 30.7644 59.2456 30.7644C61.5925 30.7644 63.4949 28.9639 63.4949 26.51C63.4949 24.0437 61.5901 22.2557 59.2456 22.2557ZM59.2456 29.0786C57.9616 29.0786 56.8564 28.0113 56.8564 26.5001C56.8564 24.9664 57.9641 23.9215 59.2456 23.9215C60.5296 23.9215 61.6348 24.9664 61.6348 26.5001C61.6348 28.0212 60.5296 29.0786 59.2456 29.0786ZM48.2137 23.5549V25.3554H52.5177C52.3861 26.3654 52.0533 27.111 51.5441 27.6222C50.9133 28.2557 49.9398 28.9439 48.2237 28.9439C45.5787 28.9439 43.5099 26.7993 43.5099 24.1434C43.5099 21.4876 45.5787 19.3429 48.2237 19.3429C49.6517 19.3429 50.6923 19.909 51.4647 20.6322L52.7362 19.3554C51.6634 18.323 50.2353 17.5325 48.2336 17.5325C44.6051 17.5325 41.5603 20.5001 41.5603 24.1335C41.5603 27.7769 44.6027 30.7345 48.2336 30.7345C50.1931 30.7345 51.6634 30.0911 52.8257 28.8791C54.0103 27.6896 54.3853 26.0113 54.3853 24.6572C54.3853 24.2357 54.353 23.8567 54.286 23.535H48.2112C48.2137 23.5325 48.2137 23.5549 48.2137 23.5549ZM93.3371 24.9564C92.982 24.0013 91.9091 22.2457 89.7087 22.2457C87.5281 22.2457 85.7151 23.9689 85.7151 26.5001C85.7151 28.8891 87.5083 30.7544 89.9198 30.7544C91.8569 30.7544 92.9845 29.5649 93.4489 28.8666L92.0109 27.8991C91.5341 28.6098 90.871 29.0761 89.9297 29.0761C88.9785 29.0761 88.3129 28.6422 87.8709 27.7868L93.5358 25.4302C93.5358 25.4327 93.3371 24.9564 93.3371 24.9564ZM87.5604 26.3779C87.5157 24.7345 88.832 23.8991 89.7733 23.8991C90.5158 23.8991 91.1342 24.2656 91.3453 24.7993L87.5604 26.3779ZM82.9584 30.5001H84.8186V18.0013H82.9584V30.5001ZM79.9037 23.2008H79.8366C79.4169 22.6996 78.6197 22.2457 77.6014 22.2457C75.4879 22.2457 73.5408 24.1135 73.5408 26.5125C73.5408 28.9015 75.478 30.7469 77.6014 30.7469C78.6073 30.7469 79.4169 30.2906 79.8366 29.7794H79.9037V30.3903C79.9037 32.0138 79.0394 32.8891 77.6461 32.8891C76.5062 32.8891 75.7984 32.0661 75.5103 31.3779L73.8935 32.0562C74.3579 33.1784 75.5972 34.5674 77.6437 34.5674C79.8242 34.5674 81.6719 33.2781 81.6719 30.1335V22.5001H79.9136V23.2008C79.9161 23.2008 79.9037 23.2008 79.9037 23.2008ZM77.7678 29.0786C76.4838 29.0786 75.4109 28.0013 75.4109 26.5125C75.4109 25.0113 76.4838 23.924 77.7678 23.924C79.0394 23.924 80.0254 25.0237 80.0254 26.5125C80.0378 28.0013 79.0419 29.0786 77.7678 29.0786ZM102.047 18.0013H97.5989V30.5001H99.459V25.7669H102.049C104.108 25.7669 106.132 24.2681 106.132 21.8891C106.132 19.51 104.116 18.0013 102.047 18.0013ZM102.102 24.0212H99.4566V19.732H102.102C103.495 19.732 104.282 20.8866 104.282 21.8766C104.282 22.8567 103.485 24.0212 102.102 24.0212ZM113.588 22.2332C112.237 22.2332 110.844 22.8342 110.267 24.1434L111.916 24.8317C112.272 24.1434 112.922 23.909 113.61 23.909C114.574 23.909 115.547 24.4876 115.57 25.52V25.6522C115.237 25.4626 114.507 25.1734 113.633 25.1734C111.852 25.1734 110.046 26.1509 110.046 27.9838C110.046 29.6621 111.507 30.7395 113.133 30.7395C114.383 30.7395 115.071 30.1734 115.5 29.5175H115.567V30.4851H117.36V25.6971C117.36 23.4676 115.711 22.2332 113.588 22.2332ZM113.354 29.0786C112.746 29.0786 111.894 28.7794 111.894 28.0113C111.894 27.0437 112.957 26.6771 113.864 26.6771C114.683 26.6771 115.071 26.8542 115.557 27.0986C115.423 28.2207 114.479 29.0686 113.354 29.0786ZM123.902 22.5001L121.766 27.9215H121.699L119.486 22.5001H117.485L120.805 30.0786L118.913 34.2906H120.85L125.958 22.5001H123.902ZM107.158 30.5001H109.018V18.0013H107.158V30.5001Z" fill="white"/>
<path fill-rule="evenodd" clip-rule="evenodd" d="M11.0552 8.03364C10.7671 8.34536 10.6007 8.82167 10.6007 9.44511V31.5573C10.6007 32.1808 10.7671 32.6571 11.0651 32.9563L11.1421 33.0237L23.4803 20.6346V20.3578L11.1322 7.96631L11.0552 8.03364Z" fill="url(#paint0_linear_511_9423)"/>
<path fill-rule="evenodd" clip-rule="evenodd" d="M27.5855 24.7768L23.4702 20.6446V20.3553L27.5855 16.2231L27.6749 16.278L32.5426 19.0561C33.9359 19.8441 33.9359 21.1458 32.5426 21.9438L27.6749 24.7219L27.5855 24.7768Z" fill="url(#paint1_linear_511_9423)"/>
<path fill-rule="evenodd" clip-rule="evenodd" d="M27.675 24.7219L23.4703 20.5L11.0551 32.9663C11.5096 33.4551 12.2721 33.51 13.1239 33.0337L27.675 24.7219Z" fill="url(#paint2_linear_511_9423)"/>
<path fill-rule="evenodd" clip-rule="evenodd" d="M27.675 16.2779L13.1239 7.97869C12.2721 7.48992 11.5071 7.55725 11.0551 8.04603L23.4703 20.4999L27.675 16.2779Z" fill="url(#paint3_linear_511_9423)"/>
<path opacity="0.2" fill-rule="evenodd" clip-rule="evenodd" d="M27.5856 24.6323L13.1338 32.8767C12.3267 33.343 11.6064 33.3106 11.142 32.8867L11.065 32.964L11.142 33.0313C11.6064 33.4527 12.3267 33.4877 13.1338 33.0213L27.6849 24.7221L27.5856 24.6323Z" fill="black"/>
<path opacity="0.12" fill-rule="evenodd" clip-rule="evenodd" d="M32.5427 21.7993L27.5732 24.6322L27.6626 24.7219L32.5303 21.9439C33.2282 21.5449 33.5709 21.0212 33.5709 20.5C33.5287 20.9788 33.1735 21.4327 32.5427 21.7993Z" fill="black"/>
<path opacity="0.25" fill-rule="evenodd" clip-rule="evenodd" d="M13.124 8.12354L32.5428 19.2008C33.1736 19.5575 33.5287 20.0238 33.5834 20.5001C33.5834 19.9789 33.2406 19.4552 32.5428 19.0562L13.124 7.9789C11.7307 7.1784 10.6007 7.84673 10.6007 9.44523V9.58987C10.6007 7.98887 11.7307 7.33301 13.124 8.12354Z" fill="white"/>
</g>
<defs>
<linearGradient id="paint0_linear_511_9423" x1="22.3736" y1="9.20654" x2="2.59922" y2="14.4538" gradientUnits="userSpaceOnUse">
<stop stop-color="#00A0FF"/>
<stop offset="0.00657" stop-color="#00A1FF"/>
<stop offset="0.2601" stop-color="#00BEFF"/>
<stop offset="0.5122" stop-color="#00D2FF"/>
<stop offset="0.7604" stop-color="#00DFFF"/>
<stop offset="1" stop-color="#00E3FF"/>
</linearGradient>
<linearGradient id="paint1_linear_511_9423" x1="34.3596" y1="20.5" x2="10.2619" y2="20.5" gradientUnits="userSpaceOnUse">
<stop stop-color="#FFE000"/>
<stop offset="0.4087" stop-color="#FFBD00"/>
<stop offset="0.7754" stop-color="#FFA500"/>
<stop offset="1" stop-color="#FF9C00"/>
</linearGradient>
<linearGradient id="paint2_linear_511_9423" x1="25.3887" y1="22.7973" x2="9.42588" y2="49.5538" gradientUnits="userSpaceOnUse">
<stop stop-color="#FF3A44"/>
<stop offset="1" stop-color="#C31162"/>
</linearGradient>
<linearGradient id="paint3_linear_511_9423" x1="7.92886" y1="0.678683" x2="15.0505" y2="12.6286" gradientUnits="userSpaceOnUse">
<stop stop-color="#32A071"/>
<stop offset="0.0685" stop-color="#2DA771"/>
<stop offset="0.4762" stop-color="#15CF74"/>
<stop offset="0.8009" stop-color="#06E775"/>
<stop offset="1" stop-color="#00F076"/>
</linearGradient>
<clipPath id="clip0_511_9423">
<rect width="135" height="40" fill="white" transform="translate(0.664062 0.5)"/>
</clipPath>
</defs>
</svg>
