<svg width="68" height="68" viewBox="0 0 68 68" fill="none" xmlns="http://www.w3.org/2000/svg">
<g clip-path="url(#clip0_512_9500)">
<path d="M68 0H0V68H68V0Z" fill="white"/>
<path fill-rule="evenodd" clip-rule="evenodd" d="M0 0H22.6671V22.6671H0V0ZM3.23816 3.23816V19.429H19.429V3.23816H3.23816Z" fill="black"/>
<path fill-rule="evenodd" clip-rule="evenodd" d="M6.47632 6.47632H16.1908V16.1908H6.47632V6.47632Z" fill="black"/>
<path fill-rule="evenodd" clip-rule="evenodd" d="M68.0013 0V22.6671H45.3342V0L68.0013 0ZM64.7632 3.23816L48.5724 3.23816V19.429H64.7632V3.23816Z" fill="black"/>
<path fill-rule="evenodd" clip-rule="evenodd" d="M61.525 6.47632V16.1908H51.8105V6.47632L61.525 6.47632Z" fill="black"/>
<path fill-rule="evenodd" clip-rule="evenodd" d="M0 68.0015L0 45.3343H22.6671V68.0015H0ZM3.23816 64.7633H19.429V48.5725H3.23816L3.23816 64.7633Z" fill="black"/>
<path fill-rule="evenodd" clip-rule="evenodd" d="M6.47632 61.5251L6.47632 51.8107H16.1908V61.5251H6.47632Z" fill="black"/>
<path fill-rule="evenodd" clip-rule="evenodd" d="M25.9053 0V6.47632H29.1434V12.9526H25.9053V29.1434H22.6671V25.9053H16.1908V29.1434H9.71448V25.9053H0V29.1434H3.23816V32.3816H0V38.8579H3.23816V42.0961H6.47632V38.8579H9.71448V42.0961H22.6671V38.8579H19.429V35.6198H29.1434V38.8579H25.9053V45.3342H29.1434V38.8579H35.6198V32.3816H32.3816V29.1434H42.0961V35.6198H38.8579V38.8579H42.0961V45.3342H35.6198V48.5724H42.0961V51.8106H32.3816V48.5724H25.9053V51.8106H29.1434V55.0487H32.3816V58.2869H35.6198V55.0487H42.0961V61.525H38.8579V68.0014H42.0961V61.525H45.3342V55.0487H48.5724V51.8106H51.8106V55.0487H55.0487V61.525H51.8106V68.0014H55.0487V61.525H58.2869V55.0487H61.525V64.7632H58.2869V68.0014H61.525V64.7632H64.7632V68.0014H68.0014V58.2869H64.7632V51.8106H68.0014V45.3342H64.7632V51.8106H58.2869V38.8579H55.0487V35.6198H51.8106V29.1434H55.0487V32.3816H58.2869V29.1434H55.0487V25.9053H38.8579V22.6671H42.0961V19.429H38.8579V22.6671H35.6198V16.1908H32.3816V22.6671H29.1434V12.9526H32.3816V9.71448H35.6198V12.9526H38.8579V16.1908H42.0961V9.71448H38.8579V6.47632H42.0961V0H25.9053ZM32.3816 3.23816V6.47632H35.6198V3.23816H32.3816ZM61.525 25.9053V29.1434H64.7632V32.3816H61.525V35.6198H64.7632V32.3816H68.0014V25.9053H61.525ZM6.47632 29.1434V32.3816H3.23816V35.6198H6.47632V32.3816H9.71448V29.1434H6.47632ZM16.1908 29.1434V32.3816H12.9526V38.8579H16.1908V35.6198H19.429V32.3816H22.6671V29.1434H16.1908ZM25.9053 29.1434V32.3816H29.1434V29.1434H25.9053ZM45.3342 29.1434V38.8579H48.5724V42.0961H45.3342V51.8106H42.0961V55.0487H45.3342V51.8106H48.5724V48.5724H51.8106V45.3342H55.0487V42.0961H51.8106V38.8579H48.5724V29.1434H45.3342ZM61.525 38.8579V42.0961H68.0014V38.8579H61.525ZM55.0487 51.8106V55.0487H58.2869V51.8106H55.0487ZM25.9053 58.2869V68.0014H29.1434V64.7632H32.3816V68.0014H35.6198V64.7632H32.3816V61.525H29.1434V58.2869H25.9053ZM45.3342 64.7632V68.0014H48.5724V64.7632H45.3342Z" fill="black"/>
</g>
<defs>
<clipPath id="clip0_512_9500">
<rect width="68" height="68" fill="white"/>
</clipPath>
</defs>
</svg>
